<svg width="76" height="76" viewBox="0 0 76 76" fill="none" xmlns="http://www.w3.org/2000/svg">
<path fill-rule="evenodd" clip-rule="evenodd" d="M38.125 71.634C19.7601 71.634 4.87232 56.7462 4.87232 38.3814C4.87232 20.017 19.76 5.12967 38.125 5.12967C56.4899 5.12967 71.3772 20.017 71.3772 38.3814C71.3772 56.7463 56.4899 71.634 38.125 71.634ZM0.624466 38.3814C0.624466 59.0923 17.414 75.8818 38.125 75.8818C58.8359 75.8818 75.625 59.0922 75.625 38.3814C75.625 17.6709 58.8359 0.881821 38.125 0.881821C17.4141 0.881821 0.624466 17.6709 0.624466 38.3814Z" fill="#1CE783"/>
<path d="M40.1644 46.6154C40.1644 47.737 39.2467 48.6551 38.125 48.6551C37.0038 48.6551 36.0857 47.737 36.0857 46.6154V22.1437C36.0857 21.022 37.0038 20.104 38.125 20.104C39.2467 20.104 40.1644 21.022 40.1644 22.1437V46.6154Z" fill="white"/>
<path d="M36.0858 54.7746C36.0858 53.6521 37.0036 52.7333 38.1265 52.7333C39.2486 52.7333 40.1673 53.6521 40.1673 54.7746C40.1673 55.8967 39.2486 56.8155 38.1265 56.8155C37.0036 56.8155 36.0858 55.8967 36.0858 54.7746Z" fill="white"/>
</svg>
